# Blender 4.5.4 LTS
# www.blender.org
mtllib persona3.mtl
o Cube.064_Cube.000
v 1.596529 6.093012 1.600001
v 1.596529 2.893012 -1.600000
v 1.596529 2.893011 1.600000
v -1.603471 6.093011 -1.599999
v -1.603471 6.093012 1.600001
v 1.596529 6.093011 -1.599999
v -1.603471 2.893011 1.600000
v -1.603471 2.893012 -1.600000
v 0.019105 -1.090295 -0.790074
v 0.019098 -1.819645 -1.094304
v 1.619097 -1.090506 -0.790167
v 0.019097 -1.705470 0.686888
v 0.019098 -2.217060 0.474477
v 1.619098 -6.037763 -1.738823
v 0.019098 -6.037763 -1.738823
v 1.619076 -5.076793 -1.045975
v 0.019101 -5.230295 -1.154671
v 0.019101 -4.512944 -0.621880
v 0.019102 -4.034738 -0.302419
v 0.019098 -3.613142 -0.084770
v 1.619065 -3.131078 0.114785
v 0.019098 -3.213269 0.085673
v 0.019093 -5.101571 -3.037279
v 1.619040 -3.545836 -1.885970
v 1.619054 -4.282125 -2.444675
v 1.619097 -3.227231 -1.671456
v 1.619094 -2.870621 -1.505309
v 0.884480 -2.036325 -1.183048
v 1.619097 -1.823978 -1.096059
v 0.019097 -1.403692 -0.060147
v 0.019086 -2.832316 -1.485199
v 0.803875 -2.887842 -1.516373
v 0.019102 -3.226368 -1.670771
v 0.019101 -3.583645 -1.908794
v 1.619091 -2.418193 0.391489
v 1.619098 -3.618540 -0.088293
v 1.619098 -4.036313 -0.303542
v 1.619091 -4.487497 -0.606153
v 0.690384 -1.449450 0.063824
v 1.619097 -1.706469 0.686514
v 1.619098 -5.102037 -3.036674
v -1.620102 -1.785208 -0.606381
v -1.620102 -2.401956 -0.106393
v -0.020131 -2.470054 -0.051384
v -0.020037 -0.776802 0.635781
v -1.620105 -4.920010 3.326471
v -1.620076 -4.169061 2.944290
v -1.620099 -3.212862 2.479851
v -1.620103 -2.709208 2.191616
v -0.020147 -2.357428 1.934418
v -0.020161 -1.432887 1.167738
v -1.620102 -2.256341 1.859723
v -0.020104 -4.207025 2.963634
v -1.620105 -5.645683 1.900500
v -0.020106 -5.010864 1.577668
v -1.620093 -4.906728 1.524544
v -0.020156 -3.922077 1.049221
v -1.620095 -3.581666 0.860393
v -0.020104 -3.577888 0.858340
v -0.020142 -3.250165 0.612485
v -1.620098 -3.228483 0.595815
v -1.620103 -3.955846 1.068561
v -0.020129 -2.011901 1.655940
v -0.020103 -2.706753 2.190282
v -0.020115 -3.092074 2.412307
v -0.020144 -3.524520 2.632103
v -0.453595 -1.316159 -0.027078
v -0.020105 -4.920011 3.326471
v -0.020104 -1.785708 -0.605965
v -1.620102 -0.778754 0.635092
v -0.020102 -1.328906 0.014031
v -0.020106 -5.645684 1.900500
v -3.232859 2.159693 0.712458
v -3.232826 1.648826 0.096864
v -1.632859 -1.251326 -1.056978
v -3.232858 -1.251325 -1.056978
v -3.232852 -0.592206 -1.006294
v -2.455934 -0.075112 -0.968771
v -3.232858 -0.057509 -0.996366
v -2.426439 0.684673 -0.987107
v -3.232868 0.593812 -1.018386
v -3.232631 0.886710 -1.007051
v -2.405607 1.032757 -0.831838
v -2.454097 1.321822 -0.374220
v -3.232861 1.034782 -0.827068
v -1.632863 -0.481223 -0.997229
v -1.632859 1.036256 -0.829490
v -2.452084 -0.430581 -2.599555
v -1.632872 -0.440041 -2.603925
v -1.632939 0.154331 -2.592202
v -1.632922 0.600594 -2.561278
v -1.632860 1.093257 -2.486402
v -1.632870 1.665494 -2.258218
v -1.632867 2.052021 -1.933555
v -1.633022 2.347172 -1.603166
v -3.232794 2.772200 -1.055799
v -1.632862 2.839016 -0.976741
v -3.232860 3.391005 -0.309243
v -3.232855 2.362487 -1.586406
v -3.232790 2.047447 -1.935369
v -3.232817 1.671140 -2.254780
v -3.232858 1.096847 -2.486195
v -3.232858 0.588733 -2.562891
v -3.232859 0.139502 -2.592878
v -3.232854 -0.372051 -2.599795
v -1.632868 1.661082 0.111241
v -1.633078 0.887260 -1.007111
v -2.432858 0.956399 -0.965071
v -1.632933 0.634732 -1.021396
v -2.425551 0.315228 -0.984677
v -1.632859 2.159693 0.712459
v -3.232859 -1.126596 -2.652108
v -1.632859 3.391005 -0.309242
v -1.632859 -1.126596 -2.652109
v 3.232861 3.158036 0.667028
v 1.632858 3.157875 0.666608
v 1.632947 2.819681 0.797340
v 3.232858 1.328989 3.225710
v 1.632859 1.381276 2.427419
v 2.436928 1.360855 1.646204
v 1.632883 1.376982 2.041112
v 1.632938 1.297717 1.045220
v 2.442953 1.359919 1.106673
v 1.632859 1.365347 1.075663
v 1.632860 1.667170 1.054206
v 2.429635 2.011975 1.018437
v 1.632874 2.465811 0.912245
v 3.232859 -0.267590 3.121134
v 3.232855 1.310033 1.048138
v 3.232860 1.362373 1.088725
v 3.232859 2.408959 0.949568
v 1.632925 -0.193560 1.974545
v 3.232827 -0.173510 1.457983
v 1.632912 -0.122704 0.999546
v 3.232860 -0.123077 1.002876
v 3.232860 0.027474 0.515735
v 3.232854 0.475072 0.025004
v 2.466537 0.947481 -0.222177
v 3.232860 0.935520 -0.222531
v 3.232674 1.360662 -0.385434
v 1.633024 1.897794 -0.561311
v 3.232859 1.832821 -0.535154
v 1.632859 1.328988 3.225709
v 1.632859 0.915907 -0.219562
v 1.632868 1.369762 -0.400777
v 1.632870 0.463305 0.029213
v 2.432859 0.488703 0.020128
v 1.632861 0.036502 0.501265
v 2.432860 0.015987 0.535100
v 1.632862 -0.180395 1.464329
v 2.471843 2.404822 0.958109
v 3.232860 1.673203 1.069570
v 2.449111 1.634870 1.092774
v 2.473698 1.322520 1.055959
v 3.232858 1.351549 1.609406
v 2.534842 1.404400 2.036324
v 3.232837 1.402990 2.076505
v 1.632859 -0.267590 3.121133
v 1.632852 2.578790 -0.824159
v 3.232859 2.578536 -0.824824
v 1.596529 2.849575 -0.800000
v 1.596529 -1.950425 -0.800000
v -1.603471 2.849575 0.800000
v -1.603471 -1.950425 -0.800000
v -0.403573 -1.948915 0.800003
v 1.596529 -1.950425 0.800000
v 1.596529 2.849575 0.800000
v 0.003174 -1.949582 -0.800001
v -0.003471 -1.939180 -0.399727
v -0.379838 -1.949455 -0.091491
v -1.603471 -1.950425 0.800000
v -0.803471 -1.950425 0.400000
v -0.403471 -1.923223 0.400560
v 0.262170 -1.950441 0.214522
v -1.603471 2.849575 -0.800000
vn 0.5774 -0.5773 -0.5773
vn 0.5774 0.5774 0.5774
vn 0.5773 -0.5774 0.5773
vn -0.5773 -0.5773 0.5774
vn -0.5773 0.5774 -0.5773
vn 0.5773 0.5773 -0.5774
vn -0.5774 -0.5774 -0.5774
vn -0.5774 0.7559 -0.3086
vn -0.7045 0.2659 -0.6580
vn -0.7125 0.6474 0.2707
vn 0.7050 -0.2651 0.6578
vn -0.7092 -0.2637 0.6538
vn -0.7027 -0.2692 0.6586
vn 0.6983 -0.3019 0.6490
vn 0.7093 -0.4171 0.5683
vn 0.5775 -0.8059 0.1304
vn -0.6983 -0.3041 0.6480
vn -0.7143 0.4041 -0.5713
vn -0.5777 -0.1267 -0.8064
vn -0.7250 0.3378 -0.6002
vn -0.7178 0.2737 -0.6403
vn -0.0008 0.3715 -0.9285
vn 0.7052 0.2666 -0.6570
vn -0.0019 0.3925 -0.9198
vn 0.7157 0.2744 -0.6422
vn 0.7130 0.4074 -0.5707
vn 0.7031 0.4236 -0.5711
vn -0.6945 -0.3655 0.6197
vn -0.7010 -0.4112 0.5827
vn 0.7019 -0.4113 0.5816
vn -0.7080 -0.4171 0.5699
vn -0.0025 0.9234 0.3839
vn -0.0014 0.9236 0.3833
vn 0.5771 0.7555 -0.3102
vn -0.5773 0.3144 0.7536
vn 0.7074 -0.2707 0.6529
vn 0.7102 -0.2616 0.6536
vn -0.5774 -0.8060 0.1300
vn 0.7256 0.3378 -0.5995
vn 0.5774 -0.1305 -0.8059
vn -0.5774 0.8124 0.0815
vn -0.5772 0.0850 -0.8121
vn -0.7048 -0.4529 -0.5461
vn 0.5794 0.0909 -0.8099
vn 0.7042 -0.4538 -0.5461
vn 0.6963 0.4571 0.5533
vn -0.6999 0.4399 0.5626
vn 0.6949 0.3926 0.6024
vn 0.7091 0.3140 0.6313
vn 0.5773 -0.2527 0.7764
vn 0.7050 0.4519 0.5466
vn 0.7014 0.4337 0.5656
vn 0.7053 -0.3158 -0.6347
vn 0.5773 -0.7764 -0.2528
vn -0.5773 -0.7764 -0.2527
vn 0.7140 -0.4369 -0.5471
vn 0.7230 -0.3758 -0.5797
vn -0.7226 -0.3760 -0.5800
vn -0.6948 0.3919 0.6030
vn -0.7144 -0.3212 -0.6217
vn -0.7142 -0.4369 -0.5468
vn 0.7133 -0.3229 -0.6220
vn -0.6997 0.3336 0.6318
vn 0.7020 0.3399 0.6258
vn 0.7047 0.3150 0.6357
vn -0.7093 0.3138 0.6312
vn -0.5773 -0.2527 0.7764
vn 0.5786 0.8118 0.0791
vn 0.0281 0.7767 -0.6293
vn 0.0823 0.7736 -0.6283
vn -0.7045 -0.3146 -0.6361
vn -0.5774 -0.0756 0.8130
vn -0.6968 -0.5737 0.4304
vn 0.5774 -0.0757 0.8130
vn 0.0048 -0.0042 1.0000
vn -0.0343 -0.0026 0.9994
vn -0.7137 0.0056 0.7004
vn 0.0017 -0.0360 0.9994
vn -0.8163 -0.2509 0.5203
vn 0.0012 -0.8332 0.5529
vn -0.7200 -0.5597 0.4103
vn -0.0012 -0.8484 0.5293
vn 0.6823 0.1917 -0.7055
vn 0.8138 -0.2543 0.5225
vn 0.7296 -0.0121 0.6837
vn -0.7010 0.0283 -0.7126
vn -0.7123 0.0281 -0.7013
vn -0.7047 -0.0409 0.7083
vn -0.6817 0.1928 -0.7058
vn -0.6979 0.0774 -0.7120
vn -0.6925 0.5024 -0.5177
vn -0.6729 0.3822 -0.6333
vn -0.6984 0.5494 -0.4586
vn -0.7108 0.5490 -0.4396
vn 0.6992 0.5481 -0.4590
vn 0.6916 0.5033 -0.5180
vn 0.7011 0.0306 -0.7124
vn 0.7111 0.0317 -0.7023
vn -0.0001 0.0439 -0.9990
vn 0.5773 -0.5323 -0.6192
vn -0.5772 -0.5325 -0.6191
vn 0.6973 -0.5732 0.4304
vn 0.0035 -0.5615 0.8275
vn 0.0069 0.0240 0.9997
vn 0.7014 -0.0283 0.7122
vn -0.5773 -0.6203 0.5309
vn 0.5773 -0.6205 0.5308
vn -0.5774 0.8130 0.0759
vn 0.5773 0.8130 0.0762
vn -1.0000 0.0003 0.0001
vn 0.7094 0.5485 -0.4425
vn 0.6730 0.3794 -0.6349
vn 0.6981 0.0786 -0.7117
vn -0.7089 0.7045 -0.0343
vn -0.7023 0.7114 0.0264
vn -0.0067 0.9996 -0.0292
vn -0.0111 0.9962 -0.0863
vn -0.9599 0.1600 0.2303
vn -0.7085 0.0883 0.7002
vn -0.6712 -0.1301 0.7298
vn 0.0020 -0.4149 0.9099
vn 0.6601 -0.6510 -0.3748
vn 0.9743 0.1076 0.1980
vn 0.7148 0.6965 -0.0626
vn 0.6866 -0.7118 -0.1479
vn -0.6870 -0.7104 -0.1529
vn 0.0036 -0.4221 -0.9066
vn 0.7009 -0.2373 -0.6727
vn 0.6906 -0.3015 -0.6574
vn -0.5772 0.5388 0.6136
vn -0.7114 -0.7020 -0.0327
vn -0.5774 -0.6136 0.5387
vn -0.6887 -0.3105 -0.6551
vn -0.6665 -0.4628 -0.5845
vn -0.6946 -0.2388 -0.6786
vn -0.5773 0.7470 0.3297
vn -0.5776 0.3299 -0.7466
vn -0.7143 -0.2296 -0.6611
vn 0.0020 -0.6096 -0.7927
vn 0.6685 -0.4576 -0.5863
vn -0.6948 -0.7172 -0.0535
vn -0.0015 -0.9967 -0.0816
vn 0.5771 -0.6124 0.5402
vn 0.5776 0.7462 0.3312
vn -0.0100 0.2525 0.9676
vn 0.6888 0.1876 0.7002
vn -0.7018 0.2442 0.6692
vn -0.7034 0.1730 0.6895
vn -0.0162 0.1713 0.9851
vn 0.7026 0.0831 0.7067
vn -0.0095 0.1207 0.9926
vn 0.0136 0.3412 0.9399
vn 0.6894 0.7243 -0.0145
vn 0.5773 0.5387 0.6136
vn -0.6621 -0.6464 -0.3793
vn 0.5774 0.3292 -0.7471
vn 0.7150 -0.2319 -0.6595
vn 1.0000 -0.0000 -0.0000
vn 0.5774 0.5774 -0.5774
vn 0.5773 0.5774 0.5773
vn 0.5764 -0.5780 -0.5776
vn 0.5773 -0.5774 0.5774
vn 0.0009 -0.7182 0.6959
vn 0.0071 -0.9999 0.0133
vn -0.0086 -1.0000 -0.0036
vn 0.0120 -0.9999 -0.0100
vn 0.0174 -0.9998 -0.0010
vn -0.5772 -0.5776 0.5773
vn 0.0053 -0.7131 -0.7011
vn -0.5774 0.5773 0.5773
vn 0.6945 -0.3658 0.6196
vn 0.7222 -0.5558 0.4117
vn 0.6407 -0.2328 0.7317
vn 0.0029 -0.8738 -0.4862
vn -0.5774 0.5774 0.5773
vn 0.0172 -0.9998 0.0074
vn -0.5772 -0.5776 -0.5773
vt 0.353282 0.270000
vt 0.191782 0.430000
vt 0.191782 0.270000
vt 0.534969 0.170000
vt 0.373469 0.010000
vt 0.534969 0.010000
vt 0.010094 0.430000
vt 0.010094 0.270000
vt 0.171594 0.430000
vt 0.353282 0.450000
vt 0.353282 0.610000
vt 0.191781 0.610000
vt 0.656097 0.250000
vt 0.656095 0.210000
vt 0.696461 0.249944
vt 0.777591 0.790029
vt 0.808256 0.869995
vt 0.773549 0.870003
vt 0.373459 0.590002
vt 0.373469 0.507240
vt 0.373469 0.450000
vt 0.736929 0.150053
vt 0.656095 0.106881
vt 0.656095 0.010001
vt 0.656095 0.130000
vt 0.656095 0.154080
vt 0.373469 0.794853
vt 0.373474 0.766568
vt 0.412700 0.805552
vt 0.454219 0.795095
vt 0.373469 0.815608
vt 0.411742 0.823137
vt 0.454218 0.823137
vt 0.693006 0.970001
vt 0.707281 0.890001
vt 0.707281 0.970003
vt 0.338605 0.729972
vt 0.316886 0.808813
vt 0.312907 0.730000
vt 0.517231 0.750029
vt 0.502956 0.830002
vt 0.502956 0.750000
vt 0.488682 0.830000
vt 0.474407 0.829995
vt 0.474407 0.750008
vt 0.911457 0.010009
vt 0.935256 0.009992
vt 0.935256 0.089867
vt 0.405006 0.733562
vt 0.454219 0.710000
vt 0.454219 0.766569
vt 0.373469 0.710001
vt 0.969719 0.010000
vt 0.955444 0.090000
vt 0.955444 0.010000
vt 0.886519 0.470000
vt 0.886519 0.550000
vt 0.865108 0.550000
vt 0.736845 0.219758
vt 0.736845 0.171131
vt 0.736845 0.059054
vt 0.736845 0.010000
vt 0.454219 0.570000
vt 0.454219 0.550000
vt 0.454219 0.494557
vt 0.454219 0.450000
vt 0.736843 0.250000
vt 0.555157 0.010001
vt 0.635907 0.010000
vt 0.635907 0.050000
vt 0.603894 0.969999
vt 0.589619 0.890002
vt 0.603894 0.890000
vt 0.212103 0.848019
vt 0.292719 0.819707
vt 0.292719 0.862132
vt 0.555182 0.390006
vt 0.555157 0.310000
vt 0.555157 0.270000
vt 0.555157 0.431492
vt 0.555157 0.410000
vt 0.555157 0.470000
vt 0.373469 0.843137
vt 0.387744 0.843137
vt 0.387744 0.923137
vt 0.504646 0.730396
vt 0.488682 0.730000
vt 0.488682 0.650002
vt 0.555081 0.129950
vt 0.635907 0.130000
vt 0.635907 0.153210
vt 0.716165 0.789996
vt 0.738279 0.790001
vt 0.737923 0.868863
vt 0.717810 0.870395
vt 0.474407 0.730002
vt 0.474407 0.649996
vt 0.873305 0.270210
vt 0.886519 0.318725
vt 0.861755 0.349998
vt 0.796393 0.969997
vt 0.810668 0.890000
vt 0.810668 0.970001
vt 0.969719 0.350000
vt 0.955444 0.349998
vt 0.955444 0.270003
vt 0.948517 0.890003
vt 0.945239 0.969997
vt 0.934242 0.890412
vt 0.857970 0.110000
vt 0.882872 0.110412
vt 0.857970 0.189802
vt 0.933227 0.790000
vt 0.947502 0.840000
vt 0.933227 0.870000
vt 0.211969 0.819704
vt 0.857970 0.670000
vt 0.879382 0.750000
vt 0.857970 0.750000
vt 0.232157 0.789490
vt 0.211969 0.791421
vt 0.211971 0.763138
vt 0.635907 0.211504
vt 0.635907 0.250000
vt 0.555157 0.250000
vt 0.635907 0.414048
vt 0.635907 0.470000
vt 0.635907 0.390000
vt 0.635907 0.370000
vt 0.635907 0.307016
vt 0.741743 0.970000
vt 0.727468 0.970000
vt 0.741743 0.890000
vt 0.487588 0.590344
vt 0.512165 0.629981
vt 0.488682 0.630000
vt 0.517231 0.589685
vt 0.531506 0.629997
vt 0.989906 0.412185
vt 0.975739 0.450000
vt 0.975631 0.408644
vt 0.635882 0.630019
vt 0.555157 0.650000
vt 0.555157 0.627230
vt 0.757032 0.590000
vt 0.757032 0.567308
vt 0.837782 0.565790
vt 0.757036 0.630001
vt 0.757032 0.610000
vt 0.757032 0.670000
vt 0.757032 0.650000
vt 0.757032 0.690000
vt 0.757032 0.726194
vt 0.062282 0.887421
vt 0.087380 0.810067
vt 0.087380 0.889976
vt 0.830855 0.890016
vt 0.845130 0.969933
vt 0.830855 0.969969
vt 0.488682 0.529967
vt 0.502956 0.450004
vt 0.502956 0.530000
vt 0.899780 0.889996
vt 0.914054 0.889999
vt 0.914054 0.930000
vt 0.646718 0.826740
vt 0.660993 0.790000
vt 0.660993 0.870000
vt 0.935256 0.315000
vt 0.921215 0.349996
vt 0.921407 0.270000
vt 0.879592 0.928644
vt 0.865317 0.930000
vt 0.865317 0.890003
vt 0.865317 0.969997
vt 0.502956 0.589630
vt 0.861451 0.790000
vt 0.835753 0.870000
vt 0.835753 0.790000
vt 0.038643 0.890000
vt 0.015447 0.852500
vt 0.038643 0.810000
vt 0.837782 0.730326
vt 0.757032 0.770000
vt 0.837782 0.650000
vt 0.837782 0.622903
vt 0.837782 0.590000
vt 0.757032 0.530000
vt 0.837782 0.530000
vt 0.635907 0.730889
vt 0.635907 0.690000
vt 0.635907 0.670000
vt 0.635907 0.650000
vt 0.635907 0.610000
vt 0.555157 0.568639
vt 0.635907 0.530000
vt 0.555157 0.530000
vt 0.635907 0.770000
vt 0.555157 0.770000
vt 0.555157 0.730663
vt 0.837782 0.770000
vt 0.292715 0.686759
vt 0.292719 0.700711
vt 0.250517 0.686957
vt 0.252140 0.672426
vt 0.292720 0.643617
vt 0.969719 0.190015
vt 0.955444 0.190000
vt 0.955444 0.149498
vt 0.656082 0.650000
vt 0.736845 0.649552
vt 0.737356 0.689493
vt 0.583706 0.790001
vt 0.597981 0.790000
vt 0.597981 0.869985
vt 0.989906 0.608325
vt 0.975631 0.569986
vt 0.989906 0.570000
vt 0.757032 0.510000
vt 0.837782 0.459517
vt 0.837782 0.510000
vt 0.756918 0.350025
vt 0.837782 0.350000
vt 0.837782 0.370000
vt 0.837782 0.330000
vt 0.757032 0.270000
vt 0.837782 0.270000
vt 0.837782 0.310000
vt 0.955444 0.470124
vt 0.941169 0.550014
vt 0.941169 0.470018
vt 0.975631 0.649982
vt 0.989906 0.650000
vt 0.555157 0.828325
vt 0.569432 0.830000
vt 0.569432 0.869980
vt 0.569432 0.790015
vt 0.612256 0.869975
vt 0.612441 0.790004
vt 0.906707 0.547274
vt 0.917413 0.505000
vt 0.920982 0.550000
vt 0.136117 0.810000
vt 0.121843 0.848050
vt 0.121843 0.810000
vt 0.136117 0.889996
vt 0.123276 0.890132
vt 0.107568 0.850162
vt 0.107568 0.809998
vt 0.761931 0.929188
vt 0.776205 0.930162
vt 0.761931 0.970015
vt 0.247682 0.645465
vt 0.251837 0.630000
vt 0.211939 0.672426
vt 0.211934 0.688136
vt 0.292719 0.728995
vt 0.211969 0.728995
vt 0.272532 0.743137
vt 0.757032 0.308006
vt 0.757032 0.389261
vt 0.837797 0.390000
vt 0.757032 0.450269
vt 0.757032 0.470000
vt 0.656095 0.530000
vt 0.736848 0.608586
vt 0.656095 0.570000
vt 0.656095 0.590000
vt 0.656095 0.610000
vt 0.656095 0.690259
vt 0.736845 0.510000
vt 0.656095 0.510000
vt 0.736845 0.270000
vt 0.656095 0.270000
vt 0.090844 0.790000
vt 0.010094 0.630000
vt 0.090844 0.630000
vt 0.353282 0.250000
vt 0.252339 0.010000
vt 0.353282 0.010000
vt 0.150019 0.728147
vt 0.158352 0.702071
vt 0.171594 0.730000
vt 0.171594 0.750000
vt 0.191781 0.730005
vt 0.191781 0.790000
vt 0.010094 0.010000
vt 0.171594 0.250000
vt 0.091850 0.250000
vt 0.353282 0.430000
vt 0.534969 0.270000
vt 0.373469 0.430000
vt 0.373469 0.270000
vt 0.534969 0.430000
vt 0.171594 0.610000
vt 0.010094 0.610000
vt 0.010094 0.450000
vt 0.171594 0.450000
vt 0.373469 0.170000
vt 0.171594 0.270000
vt 0.191782 0.450000
vt 0.878707 0.450004
vt 0.857970 0.370000
vt 0.884556 0.370130
vt 0.373469 0.616795
vt 0.454219 0.649658
vt 0.373469 0.653043
vt 0.373469 0.544413
vt 0.373469 0.570000
vt 0.989906 0.470000
vt 0.975631 0.510000
vt 0.975631 0.470000
vt 0.941169 0.450000
vt 0.941169 0.370000
vt 0.955444 0.450000
vt 0.454219 0.690000
vt 0.373469 0.690000
vt 0.989906 0.550001
vt 0.975631 0.550004
vt 0.693006 0.890000
vt 0.341456 0.770193
vt 0.803454 0.790174
vt 0.517231 0.830003
vt 0.635907 0.106164
vt 0.488682 0.750000
vt 0.910695 0.089994
vt 0.969719 0.090000
vt 0.857970 0.500000
vt 0.736845 0.103345
vt 0.736845 0.130000
vt 0.454219 0.592471
vt 0.373469 0.738284
vt 0.796393 0.890000
vt 0.555157 0.344840
vt 0.555157 0.370000
vt 0.555159 0.510000
vt 0.450756 0.882867
vt 0.422374 0.843607
vt 0.440667 0.843137
vt 0.555157 0.155972
vt 0.504843 0.649997
vt 0.424497 0.923141
vt 0.373469 0.923137
vt 0.857970 0.270003
vt 0.969719 0.269999
vt 0.882232 0.189997
vt 0.968704 0.970000
vt 0.968701 0.890200
vt 0.982979 0.970000
vt 0.589619 0.970000
vt 0.879382 0.670000
vt 0.555157 0.104697
vt 0.555157 0.210000
vt 0.595532 0.510000
vt 0.292719 0.763137
vt 0.474407 0.450031
vt 0.474407 0.529984
vt 0.861215 0.870551
vt 0.474407 0.630551
vt 0.879592 0.970000
vt 0.950966 0.610479
vt 0.955444 0.650000
vt 0.941169 0.650000
vt 0.555157 0.670000
vt 0.646718 0.790000
vt 0.312910 0.630102
vt 0.341456 0.710000
vt 0.312907 0.710000
vt 0.059775 0.812118
vt 0.845130 0.890024
vt 0.517231 0.450004
vt 0.488682 0.450028
vt 0.531506 0.449996
vt 0.517231 0.529998
vt 0.899780 0.970001
vt 0.975631 0.370000
vt 0.989906 0.370000
vt 0.646718 0.870000
vt 0.906707 0.310689
vt 0.531506 0.550003
vt 0.531506 0.590000
vt 0.879592 0.890000
vt 0.475974 0.550000
vt 0.515269 0.550151
vt 0.689542 0.790000
vt 0.689542 0.870000
vt 0.864303 0.826860
vt 0.341456 0.630000
vt 0.837782 0.670151
vt 0.635907 0.590000
vt 0.635907 0.563798
vt 0.010094 0.890000
vt 0.837782 0.430000
vt 0.292719 0.630000
vt 0.776205 0.970000
vt 0.656095 0.770000
vt 0.736845 0.712209
vt 0.736845 0.770000
vt 0.736845 0.630000
vt 0.736845 0.530000
vt 0.736845 0.570000
vt 0.955145 0.702151
vt 0.955444 0.750000
vt 0.941169 0.750000
vt 0.555157 0.790000
vt 0.955444 0.550000
vt 0.906708 0.110123
vt 0.935256 0.190000
vt 0.906707 0.190000
vt 0.837782 0.410000
vt 0.583706 0.870006
vt 0.583706 0.830000
vt 0.555157 0.870000
vt 0.969719 0.149188
vt 0.955444 0.110000
vt 0.969719 0.110000
vt 0.626531 0.867644
vt 0.762943 0.890000
vt 0.211969 0.630000
vt 0.656095 0.630000
vt 0.211969 0.643825
vt 0.638356 0.890000
vt 0.638356 0.970000
vt 0.624081 0.969996
vt 0.935256 0.110000
vt 0.211969 0.882132
vt 0.226244 0.882132
vt 0.211969 0.962132
vt 0.913040 0.870000
vt 0.891628 0.870000
vt 0.884490 0.790000
vt 0.913040 0.820000
vt 0.905903 0.790000
vt 0.757032 0.290000
vt 0.757032 0.370000
vt 0.757032 0.250000
vt 0.837782 0.010000
vt 0.837782 0.250000
vt 0.656095 0.670000
vt 0.191782 0.250000
vt 0.191782 0.010000
vt 0.010094 0.790000
vt 0.131219 0.710000
vt 0.111031 0.630000
vt 0.111031 0.709003
vt 0.111031 0.790000
vt 0.191781 0.630000
vt 0.171594 0.010000
vt 0.010094 0.250000
vt 0.857970 0.450000
vt 0.635907 0.270000
vt 0.635906 0.510000
vt 0.531506 0.530001
vt 0.914054 0.970000
vt 0.757032 0.010000
s 1
f 2/1/1 1/2/2 3/3/3
f 1/4/2 7/5/4 3/6/3
f 4/7/5 6/8/6 8/9/7
f 3/10/3 7/11/4 8/12/7
f 9/13/8 10/14/9 30/15/10
f 21/16/11 13/17/12 22/18/13
f 36/19/14 16/20/15 14/21/16
f 20/22/17 34/23/18 23/24/19
f 20/22/17 33/25/20 34/23/18
f 30/15/10 31/26/21 20/22/17
f 10/27/9 9/28/8 28/29/22
f 28/29/22 9/28/8 29/30/23
f 31/31/21 10/27/9 28/29/22
f 31/31/21 28/29/22 32/32/24
f 28/29/22 27/33/25 32/32/24
f 33/34/20 24/35/26 34/36/18
f 34/37/18 25/38/27 23/39/19
f 21/40/11 20/41/17 36/42/14
f 19/43/28 18/44/29 38/45/30
f 18/46/29 17/47/31 16/48/15
f 39/49/32 40/50/33 11/51/34
f 39/49/32 12/52/35 40/50/33
f 40/53/36 13/54/12 35/55/37
f 14/56/16 15/57/38 23/58/19
f 13/59/12 30/15/10 22/60/13
f 17/61/31 20/22/17 15/62/38
f 20/22/17 23/24/19 15/62/38
f 26/63/39 36/19/14 24/64/26
f 24/64/26 36/19/14 25/65/27
f 41/66/40 36/19/14 14/21/16
f 13/59/12 12/67/35 30/15/10
f 70/68/41 42/69/42 43/70/43
f 43/71/43 69/72/44 44/73/45
f 51/74/46 70/75/41 52/76/47
f 64/77/48 53/78/49 68/79/50
f 64/77/48 63/80/51 50/81/52
f 64/77/48 51/82/46 63/80/51
f 55/83/53 72/84/54 54/85/55
f 60/86/56 59/87/57 58/88/58
f 49/89/59 58/90/58 62/91/60
f 61/92/61 43/93/43 44/94/45
f 61/92/61 44/94/45 60/95/56
f 58/88/58 57/96/62 62/97/60
f 63/98/51 51/99/46 52/100/47
f 50/101/52 49/102/59 64/103/48
f 49/104/59 48/105/63 65/106/64
f 65/107/64 48/108/63 66/109/65
f 53/110/49 66/111/65 47/112/66
f 68/113/50 47/114/66 46/115/67
f 45/116/68 70/75/41 51/74/46
f 72/117/54 46/118/67 54/119/55
f 67/120/69 71/121/70 69/122/44
f 67/120/69 45/116/68 71/121/70
f 56/123/71 54/124/55 46/125/67
f 60/126/56 44/127/45 64/77/48
f 59/128/57 64/77/48 57/129/62
f 57/129/62 64/77/48 55/130/53
f 73/131/72 74/132/73 111/133/74
f 78/134/75 81/135/76 79/136/77
f 80/137/78 82/138/79 81/135/76
f 84/139/80 85/140/81 83/141/82
f 92/142/83 107/143/84 109/144/85
f 104/145/86 105/146/87 77/147/88
f 102/148/89 103/149/90 104/145/86
f 102/148/89 100/150/91 101/151/92
f 102/148/89 99/152/93 100/150/91
f 102/148/89 96/153/94 99/152/93
f 96/154/94 95/155/95 99/156/93
f 100/157/91 95/158/95 94/159/96
f 101/160/92 92/161/83 102/162/89
f 90/163/97 89/164/98 88/165/99
f 88/166/99 114/167/100 112/168/101
f 111/169/74 74/170/73 106/171/102
f 83/172/82 108/173/103 107/174/84
f 108/173/103 83/172/82 82/175/79
f 110/176/104 80/137/78 81/135/76
f 86/177/105 76/178/106 75/179/107
f 98/180/108 111/181/74 113/182/109
f 74/183/73 98/184/108 102/148/89
f 82/185/79 102/148/89 81/186/110
f 81/186/110 104/145/86 79/187/77
f 77/147/88 112/188/101 76/189/106
f 97/190/111 92/142/83 95/191/95
f 95/191/95 92/142/83 94/192/96
f 94/192/96 92/142/83 93/193/112
f 91/194/113 92/142/83 86/195/105
f 114/196/100 86/195/105 75/197/107
f 113/198/109 111/199/74 106/200/102
f 73/201/72 98/184/108 74/183/73
f 121/202/114 119/203/115 156/204/116
f 120/205/117 122/206/118 121/202/114
f 125/207/119 124/208/120 123/209/121
f 136/210/122 129/211/123 155/212/124
f 136/213/122 135/214/125 134/215/126
f 138/216/127 140/217/128 139/218/129
f 143/219/130 132/220/131 158/221/132
f 125/222/119 144/223/133 146/224/134
f 125/222/119 145/225/135 144/223/133
f 116/226/136 159/227/137 141/228/138
f 141/229/138 140/230/128 145/231/135
f 145/232/135 138/216/127 144/233/133
f 138/234/127 147/235/139 146/236/134
f 147/235/139 138/234/127 137/237/140
f 150/238/141 134/215/126 133/239/142
f 132/240/131 128/241/143 158/242/132
f 115/243/144 151/244/145 131/245/146
f 151/244/145 117/246/147 127/247/148
f 151/244/145 126/248/149 152/249/150
f 153/250/151 126/251/149 125/252/119
f 154/253/152 123/254/121 122/206/118
f 154/253/152 120/205/117 155/255/124
f 157/256/153 155/255/124 156/204/116
f 120/205/117 121/202/114 156/204/116
f 157/256/153 143/257/130 118/258/154
f 118/258/154 143/257/130 158/259/132
f 127/260/148 116/226/136 125/222/119
f 122/261/118 148/262/155 121/263/114
f 121/263/114 143/219/130 119/264/115
f 160/265/156 152/266/150 142/267/157
f 142/267/157 152/266/150 140/268/128
f 140/268/128 152/266/150 139/269/129
f 133/270/158 136/210/122 155/212/124
f 161/271/159 167/272/160 162/273/161
f 162/273/161 167/272/160 166/274/162
f 175/275/5 167/276/160 161/277/159
f 167/278/160 165/279/163 166/280/162
f 170/281/164 174/282/165 173/283/166
f 172/284/167 165/285/163 171/286/168
f 175/287/5 162/288/161 168/289/169
f 2/1/1 6/290/6 1/2/2
f 8/291/7 5/292/170 4/293/5
f 8/291/7 7/294/4 5/292/170
f 4/295/5 5/296/170 1/297/2
f 6/298/6 4/295/5 1/297/2
f 1/4/2 5/299/170 7/5/4
f 8/9/7 6/8/6 2/300/1
f 2/301/1 3/10/3 8/12/7
f 9/28/8 11/51/34 29/30/23
f 17/302/31 14/303/16 16/304/15
f 21/305/11 29/306/23 35/307/37
f 36/19/14 38/308/30 16/20/15
f 36/19/14 37/309/171 38/308/30
f 26/310/39 32/311/24 27/312/25
f 41/313/40 23/314/19 25/315/27
f 35/307/37 11/316/34 40/317/36
f 28/29/22 29/30/23 27/33/25
f 20/22/17 31/26/21 33/25/20
f 30/15/10 10/14/9 31/26/21
f 33/318/20 31/319/21 32/311/24
f 19/43/28 36/42/14 20/41/17
f 24/35/26 33/34/20 26/320/39
f 34/37/18 24/321/26 25/38/27
f 21/16/11 35/322/37 13/17/12
f 20/41/17 21/40/11 22/323/13
f 49/89/59 61/324/61 58/90/58
f 38/45/30 37/325/171 19/43/28
f 16/48/15 38/326/30 18/46/29
f 40/53/36 12/327/35 13/54/12
f 41/328/40 14/56/16 23/58/19
f 9/28/8 39/49/32 11/51/34
f 22/60/13 30/15/10 20/22/17
f 18/329/29 19/330/28 20/22/17
f 17/61/31 18/329/29 20/22/17
f 27/331/25 29/306/23 36/19/14
f 26/63/39 27/331/25 36/19/14
f 25/65/27 36/19/14 41/66/40
f 9/28/8 30/332/10 39/49/32
f 30/332/10 12/52/35 39/49/32
f 49/102/59 50/101/52 52/333/47
f 64/77/48 66/334/65 53/78/49
f 64/77/48 65/335/64 66/334/65
f 64/77/48 45/336/68 51/82/46
f 56/337/71 57/338/62 55/339/53
f 57/96/62 58/88/58 59/87/57
f 56/123/71 49/89/59 62/91/60
f 56/123/71 48/340/63 49/89/59
f 70/68/41 43/70/43 61/324/61
f 61/341/61 60/86/56 58/88/58
f 62/342/60 57/338/62 56/337/71
f 56/343/71 55/83/53 54/85/55
f 50/344/52 63/98/51 52/100/47
f 65/106/64 64/345/48 49/104/59
f 66/111/65 48/346/63 47/112/66
f 53/347/49 47/348/66 68/349/50
f 67/120/69 70/75/41 45/116/68
f 42/350/42 69/72/44 43/71/43
f 72/117/54 68/351/50 46/118/67
f 69/122/44 70/75/41 67/120/69
f 52/352/47 70/68/41 49/89/59
f 68/79/50 55/130/53 64/77/48
f 46/125/67 47/353/66 56/123/71
f 59/128/57 60/126/56 64/77/48
f 44/127/45 71/354/158 64/77/48
f 42/355/42 70/75/41 69/122/44
f 94/356/96 101/160/92 100/357/91
f 64/77/48 71/354/158 45/336/68
f 86/177/105 77/358/88 76/178/106
f 77/359/88 78/134/75 79/136/77
f 82/175/79 83/172/82 85/360/81
f 84/361/80 74/362/73 85/363/81
f 86/195/105 92/142/83 109/144/85
f 92/142/83 87/364/172 107/143/84
f 92/142/83 106/200/102 87/364/172
f 114/167/100 88/166/99 89/365/98
f 96/366/94 113/367/109 97/368/111
f 77/147/88 105/146/87 112/188/101
f 102/148/89 98/184/108 96/153/94
f 95/155/95 96/154/94 97/369/111
f 99/370/93 95/158/95 100/157/91
f 91/371/113 102/162/89 92/161/83
f 92/161/83 101/160/92 93/372/112
f 90/373/97 103/374/90 91/371/113
f 88/165/99 104/375/86 90/163/97
f 84/139/80 87/376/172 106/377/102
f 112/168/101 105/378/87 88/166/99
f 84/379/80 106/171/102 74/170/73
f 80/137/78 107/380/84 108/381/103
f 87/382/172 83/172/82 107/174/84
f 86/383/105 110/176/104 78/134/75
f 80/137/78 108/381/103 82/138/79
f 109/384/85 80/137/78 110/176/104
f 112/168/101 75/385/107 76/386/106
f 78/134/75 110/176/104 81/135/76
f 78/387/75 77/358/88 86/177/105
f 98/388/108 113/367/109 96/366/94
f 85/389/81 74/183/73 102/148/89
f 82/185/79 85/389/81 102/148/89
f 81/186/110 102/148/89 104/145/86
f 79/187/77 104/145/86 77/147/88
f 97/190/111 113/198/109 92/142/83
f 113/198/109 106/200/102 92/142/83
f 90/390/97 91/194/113 86/195/105
f 89/391/98 90/390/97 86/195/105
f 114/196/100 89/391/98 86/195/105
f 98/180/108 73/392/72 111/181/74
f 143/257/130 156/204/116 119/203/115
f 143/219/130 150/393/141 132/220/131
f 122/206/118 123/254/121 124/394/120
f 125/252/119 126/251/149 127/395/148
f 128/396/143 157/397/153 118/398/154
f 128/396/143 155/212/124 157/397/153
f 136/210/122 152/266/150 129/211/123
f 152/266/150 130/399/173 129/211/123
f 152/266/150 115/400/144 131/401/146
f 132/402/131 133/403/142 128/404/143
f 134/215/126 135/214/125 133/239/142
f 137/237/140 138/234/127 139/405/129
f 140/230/128 141/229/138 142/406/157
f 141/407/138 160/408/156 142/409/157
f 141/228/138 125/222/119 116/226/136
f 148/262/155 134/410/126 150/393/141
f 148/262/155 125/222/119 146/224/134
f 148/411/155 147/235/139 149/412/174
f 145/232/135 140/217/128 138/216/127
f 144/413/133 138/234/127 146/236/134
f 136/213/122 147/235/139 137/237/140
f 153/414/151 130/415/173 152/416/150
f 134/215/126 148/411/155 149/412/174
f 149/412/174 136/213/122 134/215/126
f 132/417/131 150/238/141 133/239/142
f 115/243/144 117/246/147 151/244/145
f 131/245/146 151/244/145 152/249/150
f 126/248/149 151/244/145 127/247/148
f 153/250/151 152/418/150 126/251/149
f 154/253/152 130/419/173 123/254/121
f 153/414/151 125/207/119 123/209/121
f 137/420/140 152/266/150 136/210/122
f 129/421/123 154/253/152 155/255/124
f 120/205/117 154/253/152 122/206/118
f 156/204/116 155/255/124 120/205/117
f 115/422/144 116/423/136 117/424/147
f 159/425/137 160/408/156 141/407/138
f 128/426/143 118/427/154 158/428/132
f 159/429/137 116/430/136 115/431/144
f 159/432/137 115/431/144 160/433/156
f 127/260/148 117/434/147 116/226/136
f 122/261/118 124/435/120 125/222/119
f 122/261/118 125/222/119 148/262/155
f 121/263/114 148/262/155 143/219/130
f 175/436/5 171/437/168 163/438/175
f 133/270/158 135/439/125 136/210/122
f 128/396/143 133/270/158 155/212/124
f 160/265/156 115/400/144 152/266/150
f 165/279/163 163/440/175 171/441/168
f 175/275/5 163/442/175 167/276/160
f 169/443/176 162/444/161 174/282/165
f 168/445/169 170/281/164 164/446/177
f 168/445/169 169/443/176 170/281/164
f 165/285/163 174/282/165 166/447/162
f 162/444/161 166/447/162 174/282/165
f 169/443/176 174/282/165 170/281/164
f 164/446/177 170/281/164 171/286/168
f 170/281/164 172/284/167 171/286/168
f 170/281/164 173/283/166 172/284/167
f 172/284/167 173/283/166 165/285/163
f 175/287/5 161/448/159 162/288/161
f 164/449/177 175/287/5 168/289/169
f 17/302/31 15/450/38 14/303/16
f 21/305/11 36/19/14 29/306/23
f 26/310/39 33/318/20 32/311/24
f 35/307/37 29/306/23 11/316/34
f 19/43/28 37/325/171 36/42/14
f 49/89/59 70/68/41 61/324/61
f 56/123/71 47/353/66 48/340/63
f 68/79/50 72/451/54 55/130/53
f 44/127/45 69/452/44 71/354/158
f 94/356/96 93/372/112 101/160/92
f 91/371/113 103/374/90 102/162/89
f 90/373/97 104/453/86 103/374/90
f 88/165/99 105/454/87 104/375/86
f 84/139/80 83/141/82 87/376/172
f 80/137/78 109/384/85 107/380/84
f 86/383/105 109/384/85 110/176/104
f 112/168/101 114/167/100 75/385/107
f 143/257/130 157/256/153 156/204/116
f 143/219/130 148/262/155 150/393/141
f 141/228/138 145/225/135 125/222/119
f 148/411/155 146/236/134 147/235/139
f 136/213/122 149/412/174 147/235/139
f 153/414/151 123/209/121 130/415/173
f 154/253/152 129/421/123 130/419/173
f 137/420/140 139/269/129 152/266/150
f 175/436/5 164/455/177 171/437/168
f 165/279/163 167/278/160 163/440/175
f 169/443/176 168/445/169 162/444/161
f 165/285/163 173/283/166 174/282/165
